# xmcd
#
# Track frame offsets:
#	150
#	7613
#	26374
#	45818
#	67583
#	85127
#	107105
#	129729
#	152161
#	173714
#	193778
#
# Disc length: 2840 seconds
#
# Revision: 1
# Processed by: cddbd v1.5.2PL0 Copyright (c) Steve Scherf et al.
# Submitted via: audiograbber 1.83.01
#
DISCID=740b160b
DTITLE=Larceny - Into Darkness
DYEAR=2015
DGENRE=Death Metal
TTITLE0=Intro
TTITLE1=Detour To Hell
TTITLE2=Afterlife
TTITLE3=Into Darkness
TTITLE4=No Surrender
TTITLE5=Limbus
TTITLE6=Hold The Last Light
TTITLE7=I Will Rise
TTITLE8=Gunpowder Night
TTITLE9=My Fall
TTITLE10=End Of Lies
EXTD=
EXTT0=
EXTT1=
EXTT2=
EXTT3=
EXTT4=
EXTT5=
EXTT6=
EXTT7=
EXTT8=
EXTT9=
EXTT10=
PLAYORDER=
